<?xml version="1.0" encoding="utf-8"?>
<!-- Generator: Adobe Illustrator 26.5.0, SVG Export Plug-In . SVG Version: 6.00 Build 0)  -->
<svg version="1.1" id="Artwork" xmlns="http://www.w3.org/2000/svg" xmlns:xlink="http://www.w3.org/1999/xlink" x="0px" y="0px"
	 width="361px" height="361px" viewBox="0 0 361 361" style="enable-background:new 0 0 361 361;" xml:space="preserve">
<style type="text/css">
	.st0{fill:url(#SVGID_1_);}
	.st1{fill:#FFFFFF;}
	.st2{opacity:0.2;}
	.st3{fill:url(#SVGID_00000132786828639301839720000004870510853374430359_);}
	.st4{fill:url(#SVGID_00000021091338048345561870000005796547072686392978_);}
	.st5{fill:url(#SVGID_00000129202041502650377580000007868665402519667077_);}
	.st6{fill:url(#SVGID_00000096022588237900962340000006316907035674529215_);}
	.st7{fill:#F9233B;}
</style>
<g>
	<linearGradient id="SVGID_1_" gradientUnits="userSpaceOnUse" x1="180" y1="360" x2="180" y2="1.818989e-12">
		<stop  offset="0" style="stop-color:#FA233B"/>
		<stop  offset="1" style="stop-color:#FB5C74"/>
	</linearGradient>
	<path class="st0" d="M0,247.388c0,4.299-0.002,8.599,0.024,12.899c0.022,3.622,0.064,7.243,0.162,10.864
		c0.213,7.887,0.678,15.842,2.079,23.642c1.423,7.919,3.746,15.29,7.409,22.486c3.598,7.068,8.298,13.534,13.906,19.142
		c5.608,5.608,12.076,10.309,19.145,13.907c7.191,3.661,14.559,5.983,22.474,7.406c7.803,1.403,15.761,1.868,23.651,2.081
		c3.621,0.098,7.242,0.139,10.864,0.162c4.299,0.026,8.599,0.024,12.899,0.024h134.775c4.3,0,8.599,0.002,12.899-0.024
		c3.622-0.022,7.243-0.064,10.864-0.162c7.89-0.213,15.849-0.678,23.651-2.081c7.915-1.423,15.282-3.745,22.474-7.406
		c7.069-3.598,13.537-8.299,19.145-13.907c5.607-5.608,10.308-12.074,13.906-19.142c3.663-7.195,5.986-14.566,7.409-22.486
		c1.401-7.8,1.866-15.755,2.079-23.642c0.098-3.621,0.14-7.242,0.162-10.864c0.026-4.299,0.024-8.599,0.024-12.899V112.613
		c0-4.3,0.002-8.599-0.024-12.899c-0.022-3.622-0.064-7.243-0.162-10.864c-0.213-7.887-0.678-15.843-2.079-23.642
		c-1.423-7.92-3.746-15.29-7.409-22.486c-3.598-7.067-8.299-13.534-13.906-19.142c-5.608-5.609-12.076-10.31-19.145-13.907
		c-7.191-3.661-14.558-5.983-22.474-7.406c-7.802-1.403-15.761-1.868-23.651-2.08c-3.621-0.098-7.242-0.14-10.864-0.162
		C255.986-0.002,251.687,0,247.387,0H112.613c-4.3,0-8.6-0.002-12.899,0.024c-3.622,0.022-7.243,0.064-10.864,0.162
		c-7.89,0.213-15.848,0.678-23.651,2.08C57.284,3.69,49.917,6.012,42.725,9.673c-7.069,3.598-13.537,8.299-19.145,13.907
		c-5.607,5.607-10.308,12.074-13.906,19.142c-3.663,7.196-5.987,14.566-7.409,22.486C0.864,73.007,0.399,80.963,0.186,88.85
		c-0.098,3.621-0.139,7.242-0.162,10.864C-0.002,104.014,0,108.313,0,112.613V247.388z"/>
	<g>
		<path class="st1" d="M202.5,157.5c-0.242,0-0.482,0.002-0.725,0.005c-7.972,0.114-15.505,2.108-22.159,5.543
			c-2.838-8.62-5.495-16.672-7.81-23.674C202.92,110.313,210,73.455,210,54c0-7.287-0.807-14.254-1.749-18.963
			c-0.597-2.983-2.234-4.882-4.907-5.831c-1.948-0.692-5.314-0.07-5.666-0.011C169.139,33.993,147,57.745,147,93
			c0,8.344,0.878,16.623,2.606,24.74c-11.565,7.377-23.172,15.202-32.323,25.33c-11.679,12.925-17.66,27.932-18.283,45.878
			c-0.702,20.227,6.793,39.193,21.105,53.404c13.969,13.87,33.103,22.053,53.876,23.041c1.501,0.071,3.021,0.107,4.517,0.107
			c6.114,0,12.115-0.59,17.9-1.736c2.989,10.328,4.554,19.475,4.6,27.236c0,18.911-8.579,28.5-25.5,28.5
			c-6.022,0-11.074-1.324-15.032-3.842c-2.026-1.289-1.799-4.284,0.385-5.283c6.208-2.839,10.522-9.103,10.522-16.376
			c0-9.941-8.059-18-18-18c-9.75,0-18,8.25-18,19.875c0,21,16.125,38.625,40.125,38.625c12.135,0,22.281-3.853,29.341-11.142
			C212.245,315.713,216,304.826,216,291c-0.049-9.149-1.811-19.71-5.197-31.419c7.144-2.784,13.741-6.508,19.541-11.099
			C244.309,237.426,252,222.694,252,207C252,179.706,229.794,157.5,202.5,157.5z M195.514,58.848
			c2.986-0.383,5.522,2.198,5.041,5.17c-2.931,18.108-19.875,32.948-37.329,44.878C162.413,103.65,162,98.341,162,93
			C162,77.167,175.868,61.368,195.514,58.848z M146.645,242.532c-7.764-8.644-12.04-20.197-12.04-32.532
			c0-26.546,10.476-44.346,25.131-59.348c2.201,6.667,4.629,14.03,7.174,21.768c-8.579,8.726-13.882,20.553-13.897,33.494
			c-0.007,5.559,0.6,11.279,2.593,16.837c0.829,2.312,2.368,3.19,4.193,3.431c1.849,0.244,3.842-0.705,5.302-3.663
			c2.744-5.558,7.762-11.337,13.328-14.932c5.616,17.229,11.026,33.974,15.172,47.109c-4.669,1.18-9.763,1.805-15.1,1.805
			C166.049,256.5,154.736,251.539,146.645,242.532z M207.64,248.521c-0.07,0.049-0.144,0.094-0.215,0.142
			c-4.125-13.038-9.405-29.374-14.871-46.14c0.316-0.015,0.632-0.024,0.946-0.024c7.515,0,14.534,3.229,19.472,9.031
			c4.02,4.723,6.153,10.808,6.022,17.009C218.826,236.533,214.908,243.433,207.64,248.521z"/>
		<g class="st2">
			
				<linearGradient id="SVGID_00000059294367876352164280000013023587458015458448_" gradientUnits="userSpaceOnUse" x1="210.7299" y1="253.7221" x2="224.4883" y2="239.1994">
				<stop  offset="0" style="stop-color:#F9233B"/>
				<stop  offset="1" style="stop-color:#F9233B;stop-opacity:0"/>
			</linearGradient>
			<path style="fill:url(#SVGID_00000059294367876352164280000013023587458015458448_);" d="M218.994,228.54
				c-0.168,7.994-4.086,14.893-11.355,19.982c-0.07,0.049-0.144,0.094-0.215,0.142c0.789,2.493,1.536,4.868,2.233,7.099
				c0.402,1.287,0.78,2.557,1.145,3.818c7.144-2.784,13.741-6.508,19.541-11.099c5.97-4.726,10.793-10.124,14.359-15.982
				L218.994,228.54z"/>
			
				<linearGradient id="SVGID_00000100348870354520463600000016052039597556930458_" gradientUnits="userSpaceOnUse" x1="186.2507" y1="205.1311" x2="196.5695" y2="240.6736">
				<stop  offset="0" style="stop-color:#F9233B"/>
				<stop  offset="1" style="stop-color:#F9233B;stop-opacity:0"/>
			</linearGradient>
			<path style="fill:url(#SVGID_00000100348870354520463600000016052039597556930458_);" d="M193.6,254.695
				c5.243-1.326,9.944-3.359,13.825-6.032c-4.125-13.038-9.405-29.374-14.871-46.14c-4.711,0.219-9.622,2.055-14.126,5.063
				C184.044,224.815,189.454,241.56,193.6,254.695z"/>
			
				<linearGradient id="SVGID_00000055686624877456695820000008019085618247748496_" gradientUnits="userSpaceOnUse" x1="164.0759" y1="108.8088" x2="156.0502" y2="81.292">
				<stop  offset="0" style="stop-color:#F9233B"/>
				<stop  offset="1" style="stop-color:#F9233B;stop-opacity:0"/>
			</linearGradient>
			<path style="fill:url(#SVGID_00000055686624877456695820000008019085618247748496_);" d="M153.194,63
				C149.231,71.694,147,81.79,147,93c0,8.344,0.878,16.623,2.606,24.74c1.422-0.907,2.843-1.808,4.258-2.705
				c3.085-1.954,6.231-4,9.36-6.139C162.413,103.65,162,98.341,162,93c0-7.471,3.088-14.935,8.415-21L153.194,63z"/>
			
				<linearGradient id="SVGID_00000078038900331904236020000012795865053963471529_" gradientUnits="userSpaceOnUse" x1="193.4355" y1="259.4341" x2="165.1543" y2="258.6698">
				<stop  offset="0" style="stop-color:#F9233B"/>
				<stop  offset="1" style="stop-color:#F9233B;stop-opacity:0"/>
			</linearGradient>
			<path style="fill:url(#SVGID_00000078038900331904236020000012795865053963471529_);" d="M151.5,261.328
				c7.14,2.313,14.696,3.694,22.483,4.064c1.501,0.071,3.021,0.107,4.517,0.107c6.114,0,12.115-0.59,17.9-1.736
				c-0.336-1.162-0.686-2.335-1.058-3.527c-0.551-1.761-1.133-3.615-1.741-5.542c-4.669,1.18-9.763,1.805-15.1,1.805
				c-6.967,0-13.578-1.553-19.468-4.5L151.5,261.328z"/>
			<path class="st7" d="M159.735,150.652c2.201,6.667,4.629,14.03,7.174,21.768c3.685-3.748,7.972-6.926,12.707-9.371
				c-2.838-8.62-5.495-16.672-7.81-23.674c-0.916,0.856-1.851,1.706-2.809,2.548C165.775,144.751,162.672,147.646,159.735,150.652z"
				/>
		</g>
	</g>
</g>
</svg>
